<svg width="28" height="26" viewBox="0 0 28 26" fill="none" xmlns="http://www.w3.org/2000/svg">
<path d="M26.9589 0.446884C26.7111 0.227698 26.4096 0.0821342 26.0868 0.0259636C25.7641 -0.030207 25.4325 0.00515757 25.128 0.128226L1.42168 9.66757C1.06011 9.81306 0.754243 10.0746 0.549866 10.413C0.34549 10.7513 0.253591 11.1484 0.287921 11.5448C0.322251 11.9411 0.480964 12.3154 0.740309 12.6117C0.999655 12.9079 1.34569 13.1102 1.72662 13.1882L7.95464 14.4639V22.3834C7.95427 22.7479 8.05952 23.1042 8.25707 23.4074C8.45461 23.7106 8.73556 23.9468 9.06432 24.0863C9.39308 24.2258 9.75485 24.2622 10.1038 24.1909C10.4528 24.1196 10.7732 23.9438 11.0246 23.6858L14.5273 20.0979L19.7661 24.8201C20.0919 25.1165 20.5124 25.2804 20.9481 25.2809C21.1375 25.2807 21.3257 25.2501 21.5059 25.1903C21.8032 25.0937 22.0705 24.919 22.2812 24.6836C22.4919 24.4482 22.6387 24.1603 22.707 23.8486L27.5383 2.25397C27.6119 1.92727 27.5968 1.58617 27.4947 1.26761C27.3926 0.949059 27.2074 0.665191 26.959 0.446752L26.9589 0.446884ZM1.82335 11.4052C1.81502 11.3481 1.82671 11.2899 1.85635 11.2408C1.88598 11.1918 1.93163 11.155 1.98519 11.1372L21.8215 3.15508L8.54666 12.9752L2.02887 11.6399C1.97303 11.632 1.92174 11.6041 1.88411 11.5611C1.84648 11.5182 1.82495 11.4629 1.82335 11.4052ZM9.93456 22.5695C9.89863 22.6063 9.85286 22.6314 9.80303 22.6415C9.75321 22.6517 9.70156 22.6465 9.65463 22.6266C9.60769 22.6066 9.56757 22.5729 9.53934 22.5297C9.51111 22.4864 9.49604 22.4355 9.49603 22.3835V15.563L13.3679 19.053L9.93456 22.5695ZM21.2045 23.496C21.1946 23.5405 21.1735 23.5816 21.1435 23.6152C21.1134 23.6488 21.0753 23.6738 21.033 23.6879C20.9906 23.7019 20.9454 23.7044 20.9018 23.6951C20.8582 23.6858 20.8177 23.6651 20.7843 23.635L9.95935 13.8778L26.0135 2.00162L21.2045 23.496Z" fill="white"/>
</svg>
