<svg width="26" height="26" viewBox="0 0 26 26" fill="none" xmlns="http://www.w3.org/2000/svg">
<path d="M12.6404 6.57303C11.4404 6.57303 10.2674 6.92888 9.26957 7.59558C8.27179 8.26227 7.49412 9.20988 7.03489 10.3186C6.57566 11.4272 6.45551 12.6472 6.68962 13.8241C6.92373 15.0011 7.5016 16.0822 8.35014 16.9308C9.19868 17.7793 10.2798 18.3572 11.4568 18.5913C12.6337 18.8254 13.8537 18.7052 14.9623 18.246C16.071 17.7868 17.0186 17.0091 17.6853 16.0113C18.352 15.0135 18.7079 13.8405 18.7079 12.6404C18.7061 11.0318 18.0662 9.4896 16.9288 8.35213C15.7913 7.21466 14.2491 6.57484 12.6404 6.57303ZM12.6404 16.6854C11.8404 16.6854 11.0584 16.4482 10.3932 16.0037C9.72801 15.5592 9.20956 14.9275 8.90341 14.1884C8.59726 13.4493 8.51715 12.636 8.67323 11.8513C8.8293 11.0667 9.21455 10.3459 9.78024 9.78024C10.3459 9.21455 11.0667 8.8293 11.8513 8.67323C12.636 8.51715 13.4493 8.59726 14.1884 8.90341C14.9275 9.20956 15.5592 9.72801 16.0037 10.3932C16.4482 11.0584 16.6854 11.8404 16.6854 12.6404C16.6842 13.7129 16.2576 14.741 15.4993 15.4993C14.741 16.2576 13.7129 16.6842 12.6404 16.6854ZM18.2022 0H7.07865C5.20193 0.00214115 3.40269 0.748613 2.07565 2.07565C0.748613 3.40269 0.00214115 5.20193 0 7.07865V18.2022C0.00214115 20.079 0.748613 21.8782 2.07565 23.2052C3.40269 24.5323 5.20193 25.2788 7.07865 25.2809H18.2022C20.079 25.2788 21.8782 24.5323 23.2052 23.2052C24.5323 21.8782 25.2788 20.079 25.2809 18.2022V7.07865C25.2788 5.20193 24.5323 3.40269 23.2052 2.07565C21.8782 0.748613 20.079 0.00214115 18.2022 0ZM23.2584 18.2022C23.2569 19.5428 22.7237 20.828 21.7758 21.7758C20.828 22.7237 19.5428 23.2569 18.2022 23.2584H7.07865C5.73813 23.2569 4.45295 22.7237 3.50506 21.7758C2.55716 20.828 2.02398 19.5428 2.02247 18.2022V7.07865C2.02398 5.73813 2.55716 4.45295 3.50506 3.50506C4.45295 2.55716 5.73813 2.02398 7.07865 2.02247H18.2022C19.5428 2.02398 20.828 2.55716 21.7758 3.50506C22.7237 4.45295 23.2569 5.73813 23.2584 7.07865V18.2022ZM20.7303 6.06742C20.7303 6.36742 20.6414 6.66069 20.4747 6.91013C20.308 7.15958 20.0711 7.354 19.794 7.46881C19.5168 7.58361 19.2118 7.61365 18.9176 7.55512C18.6233 7.4966 18.353 7.35213 18.1409 7.13999C17.9288 6.92786 17.7843 6.65758 17.7258 6.36334C17.6672 6.0691 17.6973 5.76411 17.8121 5.48694C17.9269 5.20977 18.1213 4.97287 18.3708 4.8062C18.6202 4.63952 18.9135 4.55056 19.2135 4.55056C19.6158 4.55056 20.0016 4.71037 20.2861 4.99484C20.5705 5.2793 20.7303 5.66512 20.7303 6.06742Z" fill="white"/>
</svg>
