<svg width="14" height="26" viewBox="0 0 14 26" fill="none" xmlns="http://www.w3.org/2000/svg">
<path d="M9.07298 1.63267L9.22647 1.65818H11.3497V4.10719H9.22647C9.10709 4.10719 8.99198 4.11569 8.88112 4.1327C8.77027 4.14971 8.68074 4.17947 8.61252 4.22199C8.5443 4.2645 8.48035 4.31127 8.42066 4.36229C8.36097 4.41332 8.30981 4.46434 8.26717 4.51536C8.22454 4.56638 8.19043 4.62165 8.16485 4.68118C8.13926 4.7407 8.12221 4.79172 8.11368 4.83424L8.0881 4.96179L8.07531 5.05108V8.97969H12.2195L11.6311 11.4287H8.07531V23.6737H5.6195V11.4287H2.34509V8.97969H5.6195V5.17863C5.6195 4.65141 5.68772 4.17947 5.82415 3.7628C5.96059 3.34613 6.14392 3.01874 6.37415 2.78064C6.60438 2.54255 6.83888 2.33846 7.07764 2.16839C7.3164 1.99832 7.58074 1.87927 7.87066 1.81125C8.16058 1.74322 8.39081 1.69645 8.56136 1.67094C8.7319 1.64543 8.90244 1.63267 9.07298 1.63267ZM9.07298 0C8.01562 0 7.06911 0.255105 6.23345 0.765315C4.73268 1.66669 3.9823 3.13779 3.9823 5.17863V7.34702H2.34509C1.90168 7.34702 1.51796 7.50859 1.19393 7.83172C0.869901 8.15485 0.707886 8.53751 0.707886 8.97969V11.4287C0.707886 11.8709 0.869901 12.2535 1.19393 12.5767C1.51796 12.8998 1.90168 13.0614 2.34509 13.0614H3.9823V23.6482C3.9823 24.1074 4.14005 24.4943 4.45555 24.809C4.77105 25.1236 5.15904 25.2809 5.6195 25.2809H8.07531C8.51872 25.2809 8.90244 25.1236 9.22647 24.809C9.5505 24.4943 9.71252 24.1074 9.71252 23.6482V13.0614H11.6311C12.0063 13.0614 12.3389 12.9508 12.6288 12.7297C12.9187 12.5086 13.1148 12.228 13.2172 11.8879L13.7799 9.43888C13.9334 8.91167 13.8482 8.43122 13.5241 7.99754C13.2001 7.56386 12.7652 7.34702 12.2195 7.34702H9.71252V5.73986H11.3497C11.7931 5.73986 12.1769 5.57829 12.5009 5.25516C12.8249 4.93203 12.9869 4.54937 12.9869 4.10719V1.65818C12.9869 1.19899 12.8292 0.812084 12.5137 0.497455C12.1982 0.182825 11.8187 0.0255105 11.3753 0.0255105H9.27763C9.20942 0.0085035 9.1412 0 9.07298 0Z" fill="white"/>
</svg>
