<svg width="25" height="26" viewBox="0 0 25 26" fill="none" xmlns="http://www.w3.org/2000/svg">
<path d="M21.9344 2.46375C21.3074 1.88604 18.7694 0.0442861 13.1108 0.0195977C13.1108 0.0195977 6.44001 -0.380354 3.19102 2.602C1.38383 4.40919 0.746868 7.06072 0.67774 10.3443C0.608613 13.6278 0.524672 19.7802 6.45482 21.4491H6.45976L6.45482 23.997C6.45482 23.997 6.41532 25.0289 7.09672 25.2363C7.91637 25.4931 8.40026 24.708 9.18536 23.8636C9.61493 23.3995 10.2075 22.7181 10.6568 22.1996C14.7156 22.5403 17.8312 21.7602 18.1867 21.6466C19.0064 21.38 23.6429 20.7875 24.3934 14.6351C25.1735 8.28527 24.0181 4.27587 21.9344 2.46375ZM22.6208 14.171C21.9838 19.3062 18.2262 19.632 17.535 19.8542C17.2387 19.9481 14.4983 20.6295 11.0567 20.4073C11.0567 20.4073 8.48914 23.5032 7.68924 24.308C7.42754 24.5697 7.14116 24.545 7.1461 24.0266C7.1461 23.6859 7.16585 19.795 7.16585 19.795C7.16091 19.795 7.16091 19.795 7.16585 19.795C2.13929 18.4026 2.43555 13.1637 2.48987 10.4233C2.54418 7.68287 3.06264 5.43623 4.59332 3.9253C7.3436 1.43177 13.0071 1.8021 13.0071 1.8021C17.7917 1.82185 20.0828 3.26365 20.6161 3.74754C22.3788 5.25847 23.2775 8.87285 22.6208 14.171ZM15.7574 10.1813C15.7772 10.606 15.1402 10.6356 15.1204 10.211C15.0661 9.12467 14.5575 8.59634 13.5108 8.53709C13.0861 8.5124 13.1256 7.87544 13.5453 7.90013C14.9229 7.97419 15.6883 8.76422 15.7574 10.1813ZM16.7598 10.7393C16.8091 8.64572 15.5006 7.00641 13.017 6.82371C12.5973 6.79409 12.6417 6.15713 13.0614 6.18675C15.9253 6.39414 17.451 8.36427 17.3967 10.7541C17.3918 11.1787 16.7499 11.159 16.7598 10.7393ZM19.0805 11.4009C19.0854 11.8256 18.4435 11.8305 18.4435 11.4059C18.4139 7.38167 15.7327 5.18934 12.4788 5.16466C12.0591 5.15972 12.0591 4.5277 12.4788 4.5277C16.1179 4.55238 19.0459 7.06566 19.0805 11.4009ZM18.5225 16.2448V16.2547C17.9892 17.1928 16.9918 18.2297 15.9648 17.8989L15.9549 17.8841C14.9131 17.5928 12.459 16.3287 10.9086 15.0943C10.1087 14.4623 9.37792 13.7167 8.81503 13.0007C8.30645 12.3638 7.79293 11.6083 7.29423 10.6998C6.2425 8.79879 6.01043 7.9495 6.01043 7.9495C5.67961 6.92247 6.71158 5.92506 7.65468 5.39179H7.66455C8.11882 5.15478 8.55333 5.23378 8.84466 5.58436C8.84466 5.58436 9.45693 6.31513 9.71862 6.67558C9.96551 7.01135 10.2963 7.54955 10.4692 7.85075C10.7703 8.38896 10.5827 8.93704 10.2865 9.16417L9.69394 9.63819C9.39274 9.88014 9.43224 10.3295 9.43224 10.3295C9.43224 10.3295 10.3111 13.6525 13.5947 14.4919C13.5947 14.4919 14.044 14.5314 14.286 14.2302L14.76 13.6377C14.9871 13.3414 15.5352 13.1538 16.0734 13.455C16.7993 13.8648 17.7226 14.5018 18.3349 15.0795C18.6805 15.361 18.7595 15.7905 18.5225 16.2448Z" fill="white"/>
</svg>
