<svg width="26" height="26" viewBox="0 0 26 26" fill="none" xmlns="http://www.w3.org/2000/svg">
<path fill-rule="evenodd" clip-rule="evenodd" d="M22.3165 3.67439C21.1504 2.5062 19.763 1.57991 18.2346 0.949187C16.7063 0.318467 15.0674 -0.00414496 13.4128 4.02031e-05C6.47496 4.02031e-05 0.827082 5.61971 0.824278 12.5274C0.824278 14.7351 1.40337 16.8898 2.50406 18.7904L0.719116 25.2809L7.39197 23.5379C9.23776 24.5379 11.3057 25.0623 13.4072 25.0632H13.4128C20.3493 25.0632 25.9972 19.4435 26 12.5358C26.0047 10.8898 25.6817 9.25916 25.0494 7.73817C24.4172 6.21717 23.4883 4.83596 22.3165 3.67439ZM13.4128 22.949H13.4086C11.5347 22.9492 9.6952 22.4474 8.08323 21.4963L7.70185 21.2702L3.74216 22.3043L4.79798 18.4625L4.5498 18.069C3.5021 16.4089 2.94747 14.4878 2.94994 12.5274C2.95275 6.78635 7.64576 2.11562 13.417 2.11562C14.7915 2.11258 16.1529 2.38088 17.4225 2.90498C18.6921 3.42909 19.8446 4.1986 20.8134 5.16897C21.7874 6.13471 22.5593 7.283 23.0847 8.54747C23.6101 9.81193 23.8785 11.1675 23.8743 12.5358C23.8715 18.2769 19.1785 22.949 13.4128 22.949ZM19.1518 15.1496C18.8364 14.9919 17.2912 14.2355 17.0023 14.1309C16.7149 14.0262 16.506 13.9746 16.2957 14.2872C16.0853 14.5998 15.4824 15.3045 15.2987 15.5138C15.115 15.7231 14.9314 15.7482 14.6173 15.592C14.3032 15.4357 13.2894 15.1049 12.0878 14.0388C11.1525 13.2084 10.5216 12.1841 10.3379 11.8702C10.1542 11.5562 10.3183 11.3873 10.4767 11.231C10.6183 11.0915 10.7908 10.8654 10.9478 10.6826C11.1049 10.4998 11.1568 10.37 11.2619 10.1607C11.3671 9.95134 11.3152 9.76853 11.2353 9.61224C11.1568 9.45455 10.5272 7.91391 10.265 7.28734C10.0112 6.68029 9.7518 6.76123 9.5583 6.75286C9.3579 6.7447 9.15734 6.74098 8.95677 6.7417C8.79729 6.74574 8.64036 6.78254 8.49583 6.84977C8.3513 6.91701 8.22229 7.01324 8.11688 7.13244C7.82804 7.44642 7.01619 8.20278 7.01619 9.74341C7.01619 11.284 8.14352 12.773 8.30057 12.9824C8.45761 13.1917 10.5188 16.3525 13.6736 17.7089C14.4252 18.0313 15.0113 18.2239 15.467 18.369C16.2199 18.6076 16.9056 18.5727 17.4482 18.4932C18.0526 18.4039 19.3089 17.7368 19.5711 17.0056C19.8333 16.2743 19.8333 15.6478 19.7548 15.5166C19.6762 15.3854 19.4645 15.3059 19.1518 15.1496Z" fill="white"/>
</svg>
